<?xml version="1.0" standalone="no"?>
<!DOCTYPE svg PUBLIC "-//W3C//DTD SVG 1.1//EN" "http://www.w3.org/Graphics/SVG/1.1/DTD/svg11.dtd" >
<!--
2013-9-30: Created.
-->
<svg>
<metadata>
Created by iconfont
</metadata>
<defs>

<font id="iconfont" horiz-adv-x="1024" >
  <font-face
    font-family="iconfont"
    font-weight="500"
    font-stretch="normal"
    units-per-em="1024"
    ascent="896"
    descent="-128"
  />
    <missing-glyph />
    
    <glyph glyph-name="icon14" unicode="&#58976;" d="M509.958932 807.408425c-261.546291 0-473.540019-212.014718-473.540019-473.506291l0-266.348184c0-65.37494 52.977709-118.378108 118.381935-118.378108 65.374548 0 118.381935 53.003168 118.381935 118.378108l0 177.564092c0 65.373916-53.006363 118.378108-118.381935 118.378108-21.41663 0-41.214322-6.127558-58.526303-16.040325 7.225861 222.477001 189.393085 400.76457 413.684387 400.76457 224.219668 0 406.416569-178.287569 413.64243-400.76457-17.341657 9.912767-37.109673 16.040325-58.497649 16.040325-65.432879 0-118.381935-53.003168-118.381935-118.378108l0-177.564092c0-65.37494 52.948032-118.378108 118.381935-118.378108 65.375572 0 118.382958 53.003168 118.382958 118.378108L983.486671 333.902134C983.485648 595.393707 771.462243 807.408425 509.958932 807.408425zM154.800848 304.309142c32.687786 0 59.190456-26.502607 59.190456-59.1911l0-177.564092c0-32.68747-26.50267-59.188031-59.190456-59.188031-32.717463 0-59.190456 26.499537-59.190456 59.188031l0 177.564092C95.609369 277.805512 122.083385 304.309142 154.800848 304.309142zM924.294169 67.554974c0-32.68747-26.531324-59.188031-59.190456-59.188031-32.717463 0-59.190456 26.499537-59.190456 59.188031l0 177.564092c0 32.68747 26.472993 59.1911 59.190456 59.1911 32.659132 0 59.190456-26.502607 59.190456-59.1911L924.294169 67.554974z"  horiz-adv-x="1024" />

    
    <glyph glyph-name="shouji" unicode="&#58915;" d="M684.90856 750.257797 339.090417 750.257797c-76.458369 0-138.326439-62.003146-138.326439-138.327462l0-622.468974c0-76.390831 61.868069-138.327462 138.326439-138.327462l345.81712 0c76.387761 0 138.326439 61.935608 138.326439 138.327462L823.233975 611.931359C823.233975 688.254651 761.296321 750.257797 684.90856 750.257797zM512.001535-126.231591c-24.922622 0-45.12678 20.202111-45.12678 45.12678 0 24.920576 20.203134 45.12371 45.12678 45.12371 24.918529 0 45.121664-20.203134 45.121664-45.12371C557.123198-106.028457 536.919041-126.231591 512.001535-126.231591zM778.839883-19.515081 245.161141-19.515081 245.161141 637.182462l533.677719 0L778.838859-19.515081z"  horiz-adv-x="1024" />

    
    <glyph glyph-name="dianzan" unicode="&#58892;" d="M884.876 472.857h-237.905c92.186 340.464-63.517 357.853-63.517 357.853-65.993 0-52.312-52.182-57.303-60.882 0-166.502-176.85-296.972-176.85-296.972v-472.172c0-46.608 63.517-63.394 88.433-63.394h357.452c33.641 0 61.036 88.224 61.036 88.224 88.434 300.706 88.434 390.177 88.434 390.177 0.001 62.128-59.781 57.164-59.781 57.164v0 0zM251.671 472.7h-142.457c-29.42 0-29.873-28.896-29.873-28.896l29.42-476.203c0-30.309 30.361-30.309 30.361-30.309h123.297c25.686 0 25.459 20.050 25.459 20.050l-0 479.247c0 36.574-36.208 36.111-36.208 36.111v0 0zM251.671 472.7z"  horiz-adv-x="1024" />

    
    <glyph glyph-name="gengduo" unicode="&#59020;" d="M122.88 834.56 40.96 834.56C18.432 834.56 0 816.128 0 793.6l0-81.92c0-22.592 18.432-40.96 40.96-40.96l81.92 0c22.592 0 40.96 18.432 40.96 40.96L163.84 793.6C163.84 816.128 145.408 834.56 122.88 834.56zM122.88 588.8 40.96 588.8C18.432 588.8 0 570.432 0 547.84l0-81.92c0-22.528 18.432-40.96 40.96-40.96l81.92 0c22.592 0 40.96 18.432 40.96 40.96L163.84 547.84C163.84 570.432 145.408 588.8 122.88 588.8zM122.88 343.04 40.96 343.04C18.432 343.04 0 324.608 0 302.08l0-81.856C0 197.632 18.432 179.2 40.96 179.2l81.92 0c22.592 0 40.96 18.432 40.96 41.024L163.84 302.08C163.84 324.608 145.408 343.04 122.88 343.04zM122.88 97.28 40.96 97.28C18.432 97.28 0 78.848 0 56.32l0-81.92c0-22.592 18.432-40.96 40.96-40.96l81.92 0c22.592 0 40.96 18.368 40.96 40.96l0 81.92C163.84 78.848 145.408 97.28 122.88 97.28zM286.72 711.68l696.32 0c22.656 0 40.96 18.304 40.96 40.96 0 22.656-18.304 40.96-40.96 40.96L286.72 793.6c-22.656 0-40.96-18.304-40.96-40.96C245.76 729.984 264.064 711.68 286.72 711.68zM983.04 547.84 286.72 547.84c-22.656 0-40.96-18.304-40.96-40.96 0-22.656 18.368-40.96 40.96-40.96l696.32 0c22.656 0 40.96 18.368 40.96 40.96C1024 529.536 1005.696 547.84 983.04 547.84zM983.04 302.08 286.72 302.08c-22.656 0-40.96-18.304-40.96-40.96s18.368-40.96 40.96-40.96l696.32 0c22.656 0 40.96 18.304 40.96 40.96S1005.696 302.08 983.04 302.08zM983.04 56.32 286.72 56.32c-22.656 0-40.96-18.304-40.96-40.96S264.064-25.6 286.72-25.6l696.32 0c22.656 0 40.96 18.368 40.96 41.024S1005.696 56.32 983.04 56.32z"  horiz-adv-x="1024" />

    
    <glyph glyph-name="shezhi" unicode="&#58911;" d="M895.269104 488.479563l-66.00325 0-17.929348 53.766554 43.329854 43.318598c24.712845 24.734334 24.712845 64.977897-0.011256 89.712231l-51.389414 51.389414c-23.970948 23.949458-65.741283 23.949458-89.712231 0l-43.318598-43.297109-53.766554 17.907858 0 66.00325c0 34.964326-28.454052 63.429635-63.429635 63.429635l-82.089623 0c-34.975583 0-63.429635-28.464285-63.429635-63.429635l0-66.00325-53.766554-17.907858-43.318598 43.297109c-23.982204 23.970948-65.741283 23.927969-89.701998 0l-51.410903-51.389414c-24.712845-24.734334-24.712845-64.977897 0.011256-89.712231l43.318598-43.318598-17.918092-53.766554-66.013483 0c-34.975583 0-63.429635-28.464285-63.429635-63.429635L65.290005 342.971561c0-34.964326 28.454052-63.429635 63.429635-63.429635l66.013483 0 17.918092-53.766554-43.318598-43.340087c-11.974729-11.974729-18.573008-27.897374-18.573008-44.845371 0-16.926508 6.587022-32.849152 18.573008-44.845371l51.399647-51.389414c24.724101-24.712845 64.956408-24.712845 89.701998 0l43.318598 43.297109 53.766554-17.907858 0-66.024739c0-34.964326 28.454052-63.429635 63.429635-63.429635l82.089623 0c34.975583 0 63.429635 28.464285 63.429635 63.429635l0 66.024739 53.766554 17.907858 43.318598-43.297109c23.970948-23.949458 65.75254-23.949458 89.701998 0l51.410903 51.389414c11.974729 11.996219 18.561751 27.919886 18.561751 44.845371 0 16.947997-6.598278 32.870642-18.573008 44.845371l-43.318598 43.318598 17.929348 53.788044 66.00325 0c34.975583 0 63.439868 28.464285 63.439868 63.429635l0 82.078367C958.708971 460.015278 930.244686 488.479563 895.269104 488.479563zM914.038586 342.971561c0-10.338463-8.419763-18.758226-18.769482-18.758226l-98.197486 0-36.840046-110.499673 62.84021-62.8617c3.544733-3.533476 5.485945-8.244778 5.485945-13.262048 0-4.994758-1.952468-9.728572-5.485945-13.262048l-51.410903-51.389414c-7.078209-7.132444-19.445888-7.045463-26.523073 0l-62.84021 62.84021L571.796898 98.939639l0-98.218976c0-10.338463-8.419763-18.758226-18.758226-18.758226l-82.089623 0c-10.338463 0-18.758226 8.419763-18.758226 18.758226l0 98.218976-110.499673 36.840046-62.84021-62.84021c-7.350408-7.328919-19.249413-7.30743-26.53433 0l-51.389414 51.389414c-3.544733 3.533476-5.496178 8.266267-5.496178 13.262048 0 5.016247 1.941212 9.728572 5.485945 13.262048l62.84021 62.84021-36.829813 110.521163-98.208742 0c-10.338463 0-18.758226 8.419763-18.758226 18.758226l0 82.078367c0 10.338463 8.419763 18.758226 18.758226 18.758226l98.208742 0 36.829813 110.521163-62.828954 62.818721c-7.317663 7.30743-7.317663 19.238157-0.011256 26.545586l51.399647 51.389414c7.328919 7.350408 19.2269 7.350408 26.53433 0l62.84021-62.84021 110.499673 36.840046 0 98.197486c0 10.338463 8.419763 18.758226 18.758226 18.758226l82.089623 0c10.338463 0 18.758226-8.419763 18.758226-18.758226l0-98.197486 110.499673-36.840046 62.84021 62.84021c7.078209 7.066953 19.434631 7.110955 26.53433 0l51.389414-51.389414c7.317663-7.30743 7.317663-19.238157 0.011256-26.545586l-62.84021-62.818721 36.840046-110.521163 98.197486 0c10.349719 0 18.769482-8.419763 18.769482-18.758226L914.038586 342.971561zM511.995907 518.019343c-10.007935 0-20.264533-1.096984-30.670533-3.40454-49.264007-10.924817-89.014336-50.67617-99.940177-99.94427-19.36914-87.348394 46.601364-164.677597 130.608663-164.677597 10.007935 0 20.260439 1.095961 30.66644 3.402493 49.2681 10.924817 89.01843 50.67617 99.94427 99.940177C661.97678 440.689117 596.004229 518.019343 511.995907 518.019343zM598.993307 363.007897c-7.16519-32.30987-33.69031-58.833967-66.001203-65.999157-7.015787-1.555425-14.07967-2.343371-20.99722-2.343371-27.233248 0-52.650127 12.20702-69.730131 33.489742-17.333784 21.597901-23.465434 48.888454-17.267269 76.846202 7.16519 32.31294 33.688263 58.83806 66.00018 66.00325 7.013741 1.555425 14.07967 2.344395 20.998243 2.344395 27.235294 0 52.651151-12.208043 69.733201-33.490765C599.061868 418.258245 605.192495 390.966669 598.993307 363.007897z"  horiz-adv-x="1024" />

    
    <glyph glyph-name="bianji" unicode="&#58885;" d="M956.581518 788.405493 919.948179 825.651792 630.965485 541.565619 627.193579 504.361275 666.800645 504.361275ZM851.133907 107.363496c0-67.258847-54.720276-121.978099-121.979122-121.978099l-448.985828 0c-67.245544 0-121.965819 54.720276-121.965819 121.978099L158.203138 632.690012c0 67.258847 54.720276 121.978099 121.965819 121.978099l337.504804 0L617.673761 806.914032 280.169981 806.914032c-96.059799 0-174.21174-78.151941-174.21174-174.22402l0-525.325493c0-96.073102 78.151941-174.22402 174.21174-174.22402l448.985828 0c96.073102 0 174.22402 78.151941 174.22402 174.22402L903.379828 514.678248l-52.245921 0L851.133907 107.363496zM289.494347 519.563512l233.472426 0 0-52.245921-233.472426 0 0 52.245921ZM304.188001 287.72326l422.862867 0 0-52.245921-422.862867 0 0 52.245921Z"  horiz-adv-x="1024" />

    
    <glyph glyph-name="icon201" unicode="&#59079;" d="M859.777775 858.155067 164.637688 858.155067c-34.896788 0-63.193251-28.29544-63.193251-63.195298l0-821.529659c0-34.898835 28.29544-63.195298 63.193251-63.195298l695.140087 0c34.896788 0 63.193251 28.296463 63.193251 63.195298L922.971026 794.959769C922.971026 829.857581 894.674563 858.155067 859.777775 858.155067L859.777775 858.155067zM859.777775 20.824537c0-26.182312-21.22951-47.396473-47.396473-47.396473L212.035184-26.571936c-26.197662 0-47.396473 21.214161-47.396473 47.396473L164.638711 747.562273c0 26.166963 21.198811 47.396473 47.396473 47.396473l600.346117 0c26.166963 0 47.39852-21.22951 47.39852-47.396473L859.779821 20.824537 859.777775 20.824537 859.777775 20.824537zM449.01448 636.972549 259.431657 636.972549l0-63.193251 189.582823 0L449.01448 636.972549 449.01448 636.972549zM575.403029 447.389726 259.431657 447.389726l0-63.195298 315.971371 0L575.403029 447.389726 575.403029 447.389726zM259.431657 194.610582l442.358897 0 0 63.193251L259.431657 257.803833 259.431657 194.610582 259.431657 194.610582z"  horiz-adv-x="1024" />

    
    <glyph glyph-name="wofabiaode" unicode="&#58916;" d="M97.84 510.48l869.355 349.918c34.479 13.68 75.84-13.76 62.079-54.879l-193.199-864.395c-6.88-41.199-62.079-48-82.799-20.56l-234.559 301.838 331.198 425.277-379.518-377.278-372.558 150.879c-34.4 13.76-34.4 68.64 0 89.199z"  horiz-adv-x="1109" />

    
    <glyph glyph-name="youqu" unicode="&#58889;" d="M512 65.5c-159.7 0-311.6 50.4-439.2 145.7-6.5 4.8-7.8 14-3 20.5s14 7.8 20.5 3c122.5-91.6 268.3-140 421.7-140s299.2 48.4 421.7 139.9c6.5 4.8 15.6 3.5 20.5-3 4.8-6.5 3.5-15.6-3-20.5C823.6 115.9 671.7 65.5 512 65.5zM317.9 360.9c-24.2 0-43.9 19.6-43.9 43.9V658.6c0 24.2 19.6 43.9 43.9 43.9s43.9-19.6 43.9-43.9v-253.8c-0.1-24.2-19.7-43.9-43.9-43.9zM706.1 360.9c-24.2 0-43.9 19.6-43.9 43.9V658.6c0 24.2 19.6 43.9 43.9 43.9s43.9-19.6 43.9-43.9v-253.8c0-24.2-19.6-43.9-43.9-43.9z"  horiz-adv-x="1024" />

    
    <glyph glyph-name="richscan_icon" unicode="&#58882;" d="M39.78 495.11a27.77 27.77 0 0 1 27.78 27.78V828.44h305.55a27.78 27.78 0 1 1 0 55.56H39.78A27.77 27.77 0 0 1 12 856.22v-333.33a27.77 27.77 0 0 1 27.78-27.78zM373.11-60.440000000000055H67.56V245.11a27.78 27.78 0 1 1-55.56 0v-333.33A27.77 27.77 0 0 1 39.78-116h333.33a27.78 27.78 0 0 1 0 55.56zM984.22 884H650.89a27.78 27.78 0 1 1 0-55.56h305.55v-305.55a27.78 27.78 0 1 1 55.56 0V856.22A27.76 27.76 0 0 1 984.22 884zM984.22 272.89a27.76 27.76 0 0 1-27.78-27.78v-305.55H650.89a27.78 27.78 0 1 1 0-55.56h333.33a27.76 27.76 0 0 1 27.78 27.78V245.11a27.76 27.76 0 0 1-27.78 27.78zM984.22 411.78H39.78a27.78 27.78 0 0 1 0-55.56h944.44a27.78 27.78 0 0 1 0 55.56z"  horiz-adv-x="1024" />

    
    <glyph glyph-name="dongtai" unicode="&#58914;" d="M834.579968-12.8c-2.56 0-7.68 0-10.24 2.56l-302.08 107.52c-12.8 2.56-17.92 15.36-15.36 28.16 2.56 12.8 15.36 17.92 28.16 15.36h2.56l289.28-102.4 151.04 765.44L64.019968 302.08l268.8-94.72c12.8-2.56 17.92-15.36 15.36-28.16-2.56-12.8-15.36-17.92-28.16-15.36h-2.56l-294.4 102.4c-17.92 5.12-28.16 25.6-20.48 43.52 2.56 7.68 7.68 15.36 15.36 17.92L975.379968 852.48c15.36 10.24 35.84 5.12 46.08-10.24 5.12-7.68 7.68-17.92 5.12-25.6l-158.72-801.28c-2.56-17.92-17.92-30.72-33.28-28.16z m148.48 837.12zM445.459968-89.6c-12.8 0-23.04 10.24-23.04 23.04l2.56 217.6c0 17.92 7.68 35.84 17.92 51.2L983.059968 844.8c7.68 10.24 23.04 10.24 30.72 2.56s10.24-23.04 2.56-30.72l-537.6-642.56c-5.12-5.12-7.68-12.8-7.68-20.48l-5.12-217.6c2.56-12.8-7.68-23.04-20.48-25.6 0 2.56 0 2.56 0 0z"  horiz-adv-x="1027" />

    
    <glyph glyph-name="pinglun1" unicode="&#59115;" d="M512 55.226c-28.037 0-55.36 2.54-81.943 6.93L238.021-54.365V139.618C137.888 209.925 73.634 317.723 73.634 438.796c0 211.847 196.262 383.57 438.365 383.57 242.102 0 438.366-171.723 438.366-383.57S754.101 55.226 512 55.226z m219.182 328.775c-30.26 0-54.796 24.504-54.796 54.795 0 30.255 24.535 54.796 54.796 54.796 30.259 0 54.795-24.54 54.795-54.796 0-30.29-24.535-54.795-54.795-54.795z m-219.183 0c-30.259 0-54.797 24.504-54.797 54.795 0 30.255 24.538 54.796 54.797 54.796s54.796-24.54 54.796-54.796c0-30.29-24.536-54.795-54.796-54.795z m-219.184 0c-30.258 0-54.796 24.504-54.796 54.795 0 30.255 24.538 54.796 54.796 54.796 30.26 0 54.796-24.54 54.796-54.796 0-30.29-24.535-54.795-54.796-54.795z"  horiz-adv-x="1024" />

    
    <glyph glyph-name="bofanganniu" unicode="&#58926;" d="M512 709c-179.1 0-324.8-145.7-324.8-324.8S332.9 59.4 512 59.4s324.8 145.7 324.8 324.8S691.1 709 512 709z m0-639.2c-173.4 0-314.4 141.1-314.4 314.4s141 314.4 314.4 314.4 314.4-141.1 314.4-314.4-141-314.4-314.4-314.4zM633.9 404.1l-172.5 99.6c-15.3 8.8-34.4-2.2-34.4-19.9v-199.1c0-17.6 19.1-28.7 34.4-19.9l172.5 99.6c15.3 8.8 15.3 30.8 0 39.7z"  horiz-adv-x="1024" />

    
    <glyph glyph-name="guangchang" unicode="&#60016;" d="M1009.777778 529.066667c-16.355556 58.311111-85.333333 97.422222-184.177778 114.488889 14.933333-17.777778 27.733333-36.266667 39.822222-55.466667 54.755556-15.644444 91.733333-40.533333 100.266667-70.4 4.977778-17.777778 0.711111-38.4-12.8-61.155556-14.222222-24.888889-40.533333-53.333333-76.8-81.066666v5.688889c0 200.533333-162.844444 363.377778-363.377778 363.377777C312.177778 744.533333 149.333333 581.688889 149.333333 381.155556c0-59.022222 14.222222-117.333333 41.955556-169.955556-71.822222 14.933333-120.888889 42.666667-131.555556 78.222222-2.844444 16.355556 1.422222 36.977778 14.222223 59.733334 7.111111 12.8 18.488889 26.311111 31.288888 39.822222 0.711111 23.466667 2.844444 46.222222 7.111112 68.977778C39.111111 398.222222 2.133333 332.8 17.777778 275.911111c17.777778-63.288889 96.711111-103.822222 208.355555-118.044444 66.133333-86.044444 170.666667-141.511111 287.288889-141.511111 178.488889 0 326.4 128 356.977778 297.244444 103.111111 68.266667 158.577778 147.2 139.377778 215.466667z m-495.644445-467.2c-83.2 0-163.555556 32.711111-222.577777 91.733333 7.822222 0 15.644444-0.711111 23.466666-0.711111 78.933333 0 167.822222 11.377778 259.555556 34.844444 91.022222 23.466667 173.511111 56.177778 241.777778 93.155556-41.955556-127.288889-161.422222-219.022222-302.222223-219.022222zM829.155556 341.333333c-66.844444-41.955556-156.444444-81.777778-265.955556-109.511111-85.333333-22.044444-170.666667-33.422222-248.888889-33.422222-22.755556 0-43.377778-2.133333-64 0-34.844444 51.2-54.755556 115.911111-54.755555 182.044444 0 175.644444 142.222222 317.866667 317.866666 317.866667s317.866667-142.222222 317.866667-317.866667c0.711111-13.511111-0.711111-26.311111-2.133333-39.111111z m-474.311112-52.622222c-36.977778 0-69.688889 22.044444-83.911111 56.177778-14.222222 34.133333-6.4 73.244444 19.911111 98.844444 26.311111 26.311111 64.711111 33.422222 98.844445 19.911111 34.133333-14.222222 56.177778-46.933333 56.177778-83.911111 0-50.488889-40.533333-91.022222-91.022223-91.022222z m0 136.533333c-18.488889 0-34.844444-11.377778-41.955555-27.733333-7.111111-17.066667-2.844444-36.266667 9.955555-49.777778 12.8-12.8 32.711111-17.066667 49.777778-9.955555 17.066667 7.111111 27.733333 23.466667 27.733334 41.955555 0 24.888889-20.622222 45.511111-45.511112 45.511111z m193.422223 113.066667c-22.755556 0-43.377778 13.511111-52.622223 34.844445-8.533333 21.333333-4.266667 45.511111 12.088889 61.866666 16.355556 16.355556 40.533333 21.333333 61.866667 12.088889 21.333333-8.533333 34.844444-29.866667 34.844444-52.622222 0.711111-30.577778-24.888889-56.177778-56.177777-56.177778z m0 68.266667c-4.977778 0-9.955556-3.555556-10.666667-8.533334-1.422222-4.977778 0.711111-9.955556 4.977778-12.8 4.266667-2.844444 9.955556-2.133333 13.511111 2.133334 3.555556 3.555556 4.266667 7.822222 2.133333 12.088889-1.422222 4.266667-5.688889 7.111111-9.955555 7.111111zM672.711111 334.222222c-18.488889 0-34.844444 11.377778-41.955555 27.733334-7.111111 17.066667-2.844444 36.266667 9.955555 49.777777 12.8 12.8 32.711111 17.066667 49.777778 9.955556 17.066667-7.111111 27.733333-23.466667 27.733333-41.955556 0-12.088889-4.977778-23.466667-13.511111-32-7.822222-8.533333-19.911111-13.511111-32-13.511111z m0 0"  horiz-adv-x="1024" />

    
    <glyph glyph-name="jiahao" unicode="&#58937;" d="M682.666667 405.331903H533.480677V688.025392h-0.148774v15.976039h-42.663806v-15.976039h-0.160218v-282.991037H207.516842v-42.972798h282.991037v-282.991037h42.972798V362.061557h283.002481v42.972798H682.666667v0.297548zM512 896C229.226402 896 0 666.773598 0 384s229.226402-512 512-512 512 229.237846 512 512S794.773598 896 512 896z m0-981.32475c-258.786651 0-469.336194 210.572431-469.336194 469.336194s210.549543 469.32475 469.336194 469.32475S981.336194 642.786651 981.336194 384 770.786651-85.336194 512-85.336194z"  horiz-adv-x="1024" />

    
    <glyph glyph-name="pinglun" unicode="&#58944;" d="M585.142857-128a656.457143 656.457143 0 0 0-146.285714 18.139429L73.142857-128l73.142857 176.566857A473.892571 473.892571 0 0 0 0 384c0 282.770286 261.997714 512 585.142857 512s585.142857-229.229714 585.142857-512-261.997714-512-585.142857-512zM292.571429 457.142857a73.142857 73.142857 0 1 1 73.142857-73.142857 73.142857 73.142857 0 0 1-73.142857 73.142857z m292.571428 0a73.142857 73.142857 0 1 1 73.142857-73.142857 73.142857 73.142857 0 0 1-73.142857 73.142857z m292.571429 0a73.142857 73.142857 0 1 1 73.142857-73.142857 73.142857 73.142857 0 0 1-73.142857 73.142857z"  horiz-adv-x="1170" />

    
    <glyph glyph-name="zhuxiao" unicode="&#59060;" d="M820.656267 673.867854c-15.446807 15.446807-40.405245 15.46625-55.775304-0.037863-15.389502-15.46625-15.389502-40.532135 0.037862-55.978942 66.272379-66.444295 102.758362-154.786319 102.758362-248.803599 0-193.944154-157.273976-351.726713-350.607216-351.726713-193.269795 0-350.498746 157.782559-350.498746 351.726713 0 92.744287 35.576263 180.25334 100.162234 246.366084 15.249309 15.618723 15.001669 40.672328-0.541329 55.978942-15.555278 15.312754-40.494273 15.077394-55.769165-0.540306-79.147618-81.013105-122.727159-188.199313-122.727159-301.80472 0-237.59328 192.614879-430.900937 429.374165-430.900937 236.810451 0 429.488775 193.307657 429.488774 430.900937 0.001023 115.189486-44.711318 223.445048-125.902478 304.820404zM517.127276 435.67594c21.776979 0 39.444361 17.724687 39.44436 39.58353V789.229255c0 21.866007-17.667382 39.590694-39.44436 39.590693-21.783119 0-39.437198-17.724687-39.437198-39.590693v-313.968762c0-21.859867 17.654079-39.584554 39.437198-39.584553z"  horiz-adv-x="1024" />

    
    <glyph glyph-name="gerenziliao" unicode="&#58975;" d="M1129.071051 868.9477A91.370451 91.370451 0 0 1 1063.936373 895.999697H92.128373a92.175015 92.175015 0 0 1-92.116713-92.116713v-675.751881a92.175015 92.175015 0 0 1 92.116713-92.116713h971.679736a92.116713 92.116713 0 0 1 92.116713 92.116713V803.917965A91.125584 91.125584 0 0 1 1129.071051 868.9477zM58.103491 804.057889a34.013222 34.013222 0 0 0 34.024882 33.96658h971.679736a34.013222 34.013222 0 0 0 33.978241-33.96658v-678.841872a34.013222 34.013222 0 0 0-33.814996-30.934891H92.128373a34.013222 34.013222 0 0 0-34.024882 33.95492zM729.401121 597.751433h204.604045a29.045915 29.045915 0 0 1 0 58.091831H729.401121a29.045915 29.045915 0 1 1 0-58.091831zM934.005166 495.478561H729.401121a29.057576 29.057576 0 0 1 0-58.103491h204.604045a29.057576 29.057576 0 0 1 0 58.103491zM934.005166 335.102198H729.401121a29.051746 29.051746 0 0 1 0-58.103491h204.604045a29.051746 29.051746 0 0 1 0 58.103491zM537.355265 429.88913a226.898622 226.898622 0 0 1-41.883953 24.486721 139.760876 139.760876 0 0 1 26.573922 81.937233 139.422726 139.422726 0 1 1-253.425903-80.421388 229.825368 229.825368 0 0 1-45.475339-26.165811c-44.950624-33.231979-69.705533-78.310866-69.705533-127.097743a43.038327 43.038327 0 0 1 43.14327-42.851762h367.615647a43.224893 43.224893 0 0 1 43.14327 42.828441v0.198226c-0.291509 48.821858-25.1397 93.924066-69.985381 127.086083z m10.237782-111.811033H212.836248c4.500893 24.311816 19.904206 46.734656 44.82236 65.157999 32.369113 24.020307 75.908836 37.254797 122.57353 37.254797s90.204417-13.222829 122.58519-37.254797c24.393438-18.038551 40.123242-40.986107 44.775719-65.157999z m-113.39684 155.560641a292.0333 292.0333 0 0 1-54.232257 4.943986 300.370446 300.370446 0 0 1-50.139477-4.244365 81.086028 81.086028 0 0 0-28.661124 63.735437 81.319235 81.319235 0 1 0 132.986217-64.435058z"  horiz-adv-x="1393" />

    
    <glyph glyph-name="weibiaoti-" unicode="&#58884;" d="M823.652174 896c-95.276522 0-181.203478-39.17913-242.643478-102.845217C519.568696 856.82087 433.641739 896 338.365217 896 151.373913 896 0 717.913043 0 530.921739c0-543.165217 581.008696-658.921739 581.008696-658.921739S1162.017391 36.730435 1162.017391 530.921739c0 186.991304-151.373913 365.078261-338.365217 365.078261z"  horiz-adv-x="1162" />

    
    <glyph glyph-name="yuedu" unicode="&#58977;" d="M507.3 689.7L213.6 829.2c-18.1 8.6-32.7-4.9-32.7-30.1v-657.3c0-25.2 14.6-52.6 32.7-61.1l293.7-139.4c18.1-8.6 32.7 4.9 32.7 30.1V628.6c0 25.2-14.6 52.6-32.7 61.1zM491 2.9L236.5 123.8c-2.5 2.8-6.5 10.9-6.5 18V767.4l254.5-120.8c2.5-2.8 6.5-10.9 6.5-18v-625.7z m0 0M507.3-58.8l-122 60.6-179 138.1-5.7 550.7h-93.3c-23.9 0-43.2-20.5-43.2-45.9v-661.1c0-25.3 19.3-45.9 43.2-45.9H495c4.9 0 9.8 0.9 14.3 2.7-0.6 0.2-1.3 0.5-2 0.8z m409.4 749.4H529c-5.8 0-11.6-1.2-16.9-3.6 12.8-8.7 23.1-26.5 26.6-45.1h372.1v-655.4H540v-15.2c0-18.9-8.3-31.2-20-32.5 2.9-0.7 6-1 9-1h387.8c23.8 0 43.2 20.5 43.2 45.9v661c-0.1 25.3-19.4 45.9-43.3 45.9z m0 0M861.5 502.2c0-12.5-10.2-22.6-22.7-22.6H614.3c-8.1 0-15.6 4.3-19.7 11.3-4.1 7-4.1 15.6 0 22.6 4.1 7 11.6 11.3 19.7 11.3h224.4c12.6 0 22.8-10.1 22.8-22.6z m0-118.3c0-12.5-10.2-22.6-22.7-22.6H614.3c-8.1 0-15.6 4.3-19.7 11.3-4.1 7-4.1 15.6 0 22.6 4.1 7 11.6 11.3 19.7 11.3h224.4c12.6 0 22.8-10.1 22.8-22.6z m0 0"  horiz-adv-x="1024" />

    
    <glyph glyph-name="sousuo" unicode="&#58945;" d="M926.4-22.2c-8.7 0-17.5 3.3-24.1 10L711.7 179.2c-2.3 2.2-4.2 4.7-5.7 7.3-2.6 4.4-4.1 9.3-4.5 14.2-0.4 5 0.2 10.1 2 14.9 1.1 2.8 2.5 5.5 4.3 8 44.2 63.3 63.6 140.4 54.7 217.2-20.1 172.8-177.7 297.1-349.9 276.8-83.7-9.8-158.6-51.5-210.8-117.6-52.3-66.1-75.7-148.6-65.9-232.3 9.7-83.7 51.5-158.6 117.6-210.9 66.1-52.3 148.6-75.8 232.3-65.9 39.5 4.6 77.2 16.3 112.1 34.9 16.5 8.9 37.2 2.6 46-14 8.9-16.6 2.6-37.2-14-46-42.4-22.6-88.2-36.9-136.2-42.5-101.6-11.8-202 16.6-282.4 80.2C130.8 167 80.1 258 68.2 359.8c-11.9 101.8 16.6 202.1 80.2 282.4 63.6 80.3 154.6 131.1 256.4 143 101.8 11.8 202-16.6 282.4-80.2 80.4-63.6 131.1-154.6 143-256.4 9.8-84-8.4-168.3-51.3-240.5l171.6-172.4c13.2-13.3 13.2-34.9-0.1-48.1-6.6-6.5-15.3-9.8-24-9.8z"  horiz-adv-x="1024" />

    
    <glyph glyph-name="shanchu" unicode="&#58888;" d="M748.53803298 706.84058443H275.32388293c-43.49648592 0-78.846011-36.17802957-78.84601099-80.77918814v-26.92639606h630.90617205v26.92639606c0 44.73924267-35.34952507 80.77918815-78.84601101 80.77918814m-137.80791413 53.8527921l11.59906291-84.92171061H401.53273415l11.59906292 84.92171061h197.59832178m6.35186778 53.8527921H406.77992928c-21.67920092 0-41.83947694-17.9509307-44.87732675-40.04438388l-15.32733313-112.67661115c-3.0378498-21.95536909 12.28948332-40.04438386 33.96868423-40.04438387h262.91209274c21.67920092 0 37.00653407 17.9509307 33.96868423 40.04438387l-15.32733313 112.67661115c-3.1759339 22.09345317-23.33620992 40.04438386-45.01541084 40.04438388m144.57403417-269.12587642H262.20589511c-28.85957319 0-50.40069004-24.1647144-47.77709248-53.57662392l43.08223367-484.95129706c2.62359757-29.54999362 28.44532095-53.57662394 57.30489417-53.57662393h394.23005498c28.85957319 0 54.68129659 24.1647144 57.30489416 53.57662393L809.43311328 491.70558419c2.62359757 29.54999362-18.91751926 53.71470801-47.77709248 53.71470802M406.77992928 60.88324740999997h-78.846011l-26.23597562 376.8314606h105.08198662V60.88324740999997z m157.69202198 0h-105.08198662V437.71470801H564.47195126V60.88324740999997z m131.45604637 0h-78.846011V437.71470801h105.08198664l-26.23597564-376.8314606z m0 0"  horiz-adv-x="1024" />

    
    <glyph glyph-name="xingbie" unicode="&#58883;" d="M415.3856 743.3216a152.7808 152.7808 0 0 0-152.6784-152.6784A152.8832 152.8832 0 0 0 110.08 743.3216 152.8832 152.8832 0 0 0 262.7072 896a152.8832 152.8832 0 0 0 152.6784-152.6784zM183.808 578.1504c170.0864 54.016 342.1184-75.6224 342.016-242.176v-180.3264c0-20.1216-16.4352-36.6592-36.6592-36.6592H420.8128v-222.6688c0-7.5776-6.144-13.7216-13.7216-13.7216H119.296a13.7216 13.7216 0 0 0-13.7216 13.7216v222.72H17.0496a16.384 16.384 0 0 0-16.4352 16.384v184.32c0 116.224 72.3968 223.232 183.1936 258.4064z m791.552 114.176A152.8832 152.8832 0 0 0 822.784 539.648a152.8832 152.8832 0 0 0-152.6784 152.6784A152.8832 152.8832 0 0 0 822.7328 845.0048a152.8832 152.8832 0 0 0 152.6784-152.6784z m90.7264-598.4768a49.8176 49.8176 0 0 0-9.0624-43.008 50.432 50.432 0 0 0-39.3728-19.712s-37.888-0.256-67.7376-0.3584c-9.728-28.928-24.1664-72.5504-37.12-113.8176a49.3056 49.3056 0 0 0-47.104-34.4576h-105.216a49.6128 49.6128 0 0 0-47.4112 34.6624c-13.0048 41.1648-27.3408 83.712-37.0176 112.4864-29.9008 0.256-67.7888 1.024-67.7888 1.024a50.8416 50.8416 0 0 0-48.2816 63.1808l77.824 306.0224c16.1792 79.7696 90.112 139.776 175.2576 139.776s159.0272-60.0064 175.8208-142.6432l77.2096-303.104z"  horiz-adv-x="1075" />

    
    <glyph glyph-name="wode" unicode="&#58881;" d="M1016.83-48.128c0-21.504-17.408-38.912-38.912-38.912-21.504 0-38.912 17.408-38.912 38.912v20.992c0 97.28-198.144 235.008-425.472 235.008-180.736 0-428.544-115.712-428.544-230.912v-25.088c0-21.504-17.408-38.912-38.912-38.912S7.166-69.632 7.166-48.128v48.64c0 58.368 86.528 207.872 322.56 263.168-84.992 58.368-141.312 156.16-141.312 267.264 0 178.688 144.896 323.584 323.584 323.584 178.688 0 323.584-144.896 323.584-323.584 0-109.056-54.272-205.312-137.216-264.192 238.592-53.248 318.464-210.432 318.464-266.24v-48.64zM757.76 531.456c0 135.68-110.08 245.76-245.76 245.76s-245.76-110.08-245.76-245.76S376.32 285.696 512 285.696s245.76 110.08 245.76 245.76z"  horiz-adv-x="1024" />

    
    <glyph glyph-name="xiangji" unicode="&#58887;" d="M947.2 728.064H793.6c-51.712 0-77.312 101.888-153.6 101.888H384c-76.8 0-101.888-101.888-153.6-101.888H76.8C0 728.064 0 651.776 0 651.776v-636.928c0-75.264 76.8-76.288 76.8-76.288h870.4s76.8-2.048 76.8 76.288V651.776s0 76.288-76.8 76.288z m25.6-688.128s-17.92-51.2-51.2-51.2H102.4s-51.2 21.504-51.2 51.2v586.24c0 50.688 51.2 51.2 51.2 51.2h128c77.312 0 100.864 101.888 153.6 101.888h256c50.176 0 77.312-101.888 153.6-101.888h128s51.2 0 51.2-51.2v-586.24zM384 345.6h51.2c0 41.984 34.304 76.288 76.8 76.288v51.2c-70.656 0-128-56.832-128-127.488z m128 254.976c-141.312 0-256-114.176-256-254.976s114.688-254.976 256-254.976S768 204.8 768 345.6 653.312 600.576 512 600.576z m0-458.752c-113.152 0-204.8 91.136-204.8 203.776 0 112.64 91.648 203.776 204.8 203.776S716.8 458.24 716.8 345.6c0-112.64-91.648-203.776-204.8-203.776z m362.496 484.352h-59.392c-29.696 0-28.16-25.6 0-25.6h59.392c28.672 0 28.672 25.6 0 25.6z"  horiz-adv-x="1024" />

    
    <glyph glyph-name="shoucang-active" unicode="&#58880;" d="M292.717096-40.426653999999985c-16.663262 0-33.204894 6.689631-46.462526 16.663262-23.231263 19.947262-36.488894 53.152156-33.204893 83.073049l36.488894 195.945361-139.509205 132.819575c-23.231263 23.231263-26.515263 59.841786-23.231263 86.35705 9.973631 36.488894 36.488894 59.841786 66.409787 63.125787l192.661362 36.488894 86.357049 185.97173c19.947262 29.920893 46.462525 46.462525 79.667419 46.462526 33.204894 0 59.841786-16.663262 76.383418-46.462526l86.35705-185.97173L867.295549 540.84143c29.920893-6.689631 56.436156-29.920893 66.409788-59.841786 9.973631-29.920893 3.284-59.841786-16.663262-86.35705L774.248869 255.25501799999995l33.204894-195.945361c3.284-33.204894-6.689631-63.125787-33.204894-83.073049-16.663262-9.973631-29.920893-16.663262-49.868155-16.663262-16.663262 0-33.204894 6.689631-36.488894 9.973631l-175.9981 93.04668-179.40373-89.64105c-13.257632-9.973631-26.515263-13.379261-39.772894-13.379261zM511.89372 756.734054c-13.257632 0-23.231263-6.689631-29.920893-19.947262l-99.614681-205.918993-219.176625-43.178525c-19.947262-3.284-23.231263-16.663262-26.515263-26.515263 0-9.973631 0-29.920893 9.973631-39.894524l159.334838-152.766837-43.178525-215.892624c-3.284-13.257632 3.284-26.515263 13.257632-36.488894 9.973631-6.689631 23.231263-6.689631 33.204894 0l199.229362 103.020311 199.229362-103.020311c3.284-3.284 9.973631-3.284 16.663262-3.284001s13.257632 0 19.947262 6.689631c9.973631 6.689631 13.257632 23.231263 13.257631 36.488894l-39.894524 222.582255 159.456468 156.050837c6.689631 9.973631 9.973631 23.231263 6.68963 39.894524-3.284 13.257632-16.663262 23.231263-26.515263 26.515263L638.145294 540.84143l-99.614681 205.918993c-3.40563 3.284-13.379261 9.973631-26.636893 9.973631z"  horiz-adv-x="1024" />

    


  </font>
</defs>
</svg>
